<?xml version="1.0" encoding="UTF-8" standalone="no"?>
<!DOCTYPE svg PUBLIC "-//W3C//DTD SVG 1.1//EN" "http://www.w3.org/Graphics/SVG/1.1/DTD/svg11.dtd">
<svg width="100%" height="100%" viewBox="0 0 1584 396" version="1.1" xmlns="http://www.w3.org/2000/svg" xmlns:xlink="http://www.w3.org/1999/xlink" xml:space="preserve" xmlns:serif="http://www.serif.com/" style="fill-rule:evenodd;clip-rule:evenodd;stroke-linecap:round;stroke-linejoin:round;stroke-miterlimit:1.5;">
    <g id="design-github">
        <rect x="-284.021" y="-85.08" width="2231.02" height="721.875" style="fill:rgb(22,27,34);stroke:rgb(214,73,55);stroke-width:5px;"/>
        <g>
            <g transform="matrix(1,0,0,1,0,-4)">
                <path d="M-3.458,92.966L64.239,150.228L129.256,95.725L194.004,150.025L258.636,95.763L322.92,150.289L387.108,95.647L451.713,150.276L516.499,95.622L580.556,150.283L644.896,95.628L709.392,150.238L773.556,95.683L838.13,150.304L903.029,95.754L967.179,150.138L1031.32,95.66L1095.78,150.131L1159.95,95.701L1224.59,150.303L1289.42,95.598L1353.79,150.206L1417.86,95.636L1482.14,150.085L1546.16,95.668L1622.31,159.695" style="fill:none;stroke:rgb(214,73,55);stroke-width:10px;stroke-linecap:square;stroke-linejoin:miter;"/>
            </g>
            <g transform="matrix(1,0,0,1,-63.3327,194.364)">
                <path d="M-1.303,93.684L62.313,145.473L127.256,92.151L191.542,146.713L256.745,92.38L321.241,146.982L385.88,92.468L450.144,147.063L514.768,92.249L579.043,146.69L643.816,92.164L708.185,146.925L772.151,92.15L836.729,146.661L900.819,92.123L965.412,146.856L1030.22,92.157L1094.44,146.717L1158.58,92.112L1223.09,146.709L1287.25,92.077L1351.79,146.772L1416.65,92.109L1481.02,146.917L1545.01,92.179L1609.34,146.546L1662.45,101.362" style="fill:none;stroke:rgb(214,73,55);stroke-width:10px;stroke-linecap:square;stroke-linejoin:miter;"/>
            </g>
            <g transform="matrix(1,0,0,1,-63.5874,112.04)">
                <path d="M-1.303,93.684L61.969,146.491L127.559,89.817L192.935,145.155L257.454,90.17L322.175,145.13L386.506,89.905L450.748,144.878L515.396,90.142L580.132,144.835L644.4,90.24L708.766,144.679L772.957,89.87L837.255,144.572L901.621,90.065L966.902,144.776L1031.31,90.269L1095.19,145.01L1159.83,90.444L1223.59,145.185L1288.28,89.597L1352.98,144.952L1417.18,90.269L1481.47,144.426L1546.25,90.065L1609.76,144.959L1661.36,100.157" style="fill:none;stroke:rgb(214,73,55);stroke-width:10px;stroke-linecap:square;stroke-linejoin:miter;"/>
            </g>
            <g transform="matrix(1,0,0,1,-1.07051,-93.3066)">
                <path d="M-0.606,92.638L65.274,147.883L129.943,93.253L194.883,147.755L259.972,92.792L324.27,148.145L388.163,93.028L453.072,147.852L517.744,93.114L582.05,148.024L646.397,93.155L710.433,148.08L774.307,93.114L840.829,147.99L903.178,93.18L967.749,148.05L1032.55,93.91L1096.77,148.288L1161.2,93.042L1226.06,148.009L1290.44,93.218L1354.68,147.958L1419.06,93.028L1483.02,147.657L1547.08,92.885L1609.16,145.358L1663.61,102.814" style="fill:none;stroke:rgb(214,73,55);stroke-width:10px;stroke-linecap:square;stroke-linejoin:miter;"/>
            </g>
        </g>
        <g transform="matrix(1,0,0,1,0,4.00209)">
            <g transform="matrix(1,0,0,1,-499.667,0)">
                <g transform="matrix(0.707107,-0.707107,0.707107,0.707107,105.245,479.816)">
                    <path d="M516.613,41.109L432.274,34.037L439.345,118.377L523.532,125.04L516.613,41.109Z" style="fill:rgb(98,167,104);"/>
                </g>
                <g transform="matrix(0.707107,-0.707107,0.707107,0.707107,105.245,479.816)">
                    <path d="M516.613,41.109L556.118,1.634L562.967,85.594L523.513,125.059L516.613,41.109Z" style="fill:rgb(54,244,234);"/>
                </g>
                <g transform="matrix(-0.707107,-0.707107,-0.707107,0.707107,894.344,479.816)">
                    <path d="M516.613,41.109L556.118,1.634L563.189,77.581L523.685,125.448L516.613,41.109Z" style="fill:rgb(80,140,141);"/>
                </g>
            </g>
            <g transform="matrix(1,0,0,1,-370.371,-0.0185592)">
                <g transform="matrix(0.707107,-0.707107,0.707107,0.707107,105.245,479.816)">
                    <path d="M516.613,41.109L432.077,33.623L439.345,118.377L523.685,125.448L516.613,41.109Z" style="fill:rgb(98,167,104);"/>
                </g>
                <g transform="matrix(0.707107,-0.707107,0.707107,0.707107,105.245,479.816)">
                    <path d="M516.613,41.109L556.118,1.634L563.16,85.883L523.685,125.448L516.613,41.109Z" style="fill:rgb(54,244,234);"/>
                </g>
                <g transform="matrix(-0.707107,-0.707107,-0.707107,0.707107,893.991,479.816)">
                    <path d="M516.613,41.109L556.076,1.626L563.545,86.205L524.086,125.658L516.613,41.109Z" style="fill:rgb(80,140,141);"/>
                </g>
            </g>
            <g id="vv" transform="matrix(1,0,0,1,-241.114,-0.0893568)">
                <g transform="matrix(0.707107,-0.707107,0.707107,0.707107,105.245,479.816)">
                    <path d="M516.613,41.109L432.274,34.037L439.345,118.377L523.586,125.222L516.613,41.109Z" style="fill:rgb(98,167,104);"/>
                </g>
                <g transform="matrix(0.707107,-0.707107,0.707107,0.707107,105.245,479.816)">
                    <path d="M516.613,41.109L556.118,1.634L563.031,85.79L523.586,125.223L516.613,41.109Z" style="fill:rgb(54,244,234);"/>
                </g>
                <g transform="matrix(-0.707107,-0.707107,-0.707107,0.707107,893.991,479.816)">
                    <path d="M516.613,41.109L556.076,1.626L563.219,85.998L523.685,125.448L516.613,41.109Z" style="fill:rgb(80,140,141);"/>
                </g>
            </g>
            <g id="vv1" serif:id="vv" transform="matrix(1,0,0,1,16.8737,-0.0893568)">
                <g transform="matrix(0.707107,-0.707107,0.707107,0.707107,105.245,479.816)">
                    <path d="M516.613,41.109L432.274,34.037L439.345,118.377L523.586,125.222L516.613,41.109Z" style="fill:rgb(98,167,104);"/>
                </g>
                <g transform="matrix(0.707107,-0.707107,0.707107,0.707107,105.245,479.816)">
                    <path d="M516.613,41.109L556.118,1.634L562.8,85.51L523.586,125.223L516.613,41.109Z" style="fill:rgb(54,244,234);"/>
                </g>
                <g transform="matrix(-0.707107,-0.707107,-0.707107,0.707107,893.991,479.816)">
                    <path d="M516.613,41.109L556.076,1.626L563.304,86.063L523.685,125.448L516.613,41.109Z" style="fill:rgb(80,140,141);"/>
                </g>
            </g>
            <g id="_-" serif:id=" " transform="matrix(1,0,0,1,-112.54,-0.0893568)">
                <g transform="matrix(0.707107,-0.707107,0.707107,0.707107,105.245,479.816)">
                    <path d="M516.613,41.109L432.671,34.305L439.345,118.377L523.829,125.551L516.613,41.109Z" style="fill:rgb(98,167,104);"/>
                </g>
                <g transform="matrix(0.707107,-0.707107,0.707107,0.707107,105.245,479.816)">
                    <path d="M516.613,41.109L556.118,1.634L563.18,85.931L523.829,125.551L516.613,41.109Z" style="fill:rgb(54,244,234);"/>
                </g>
                <g transform="matrix(-0.707107,-0.707107,-0.707107,0.707107,893.991,479.816)">
                    <path d="M516.613,41.109L556.076,1.626L562.862,85.625L523.422,125.056L516.613,41.109Z" style="fill:rgb(80,140,141);"/>
                </g>
            </g>
            <g id="_-1" serif:id=" " transform="matrix(1,0,0,1,145.234,-0.0893568)">
                <g transform="matrix(0.707107,-0.707107,0.707107,0.707107,105.245,479.816)">
                    <path d="M516.613,41.109L432.671,34.305L439.345,118.377L523.685,125.448L516.613,41.109Z" style="fill:rgb(98,167,104);"/>
                </g>
                <g transform="matrix(0.707107,-0.707107,0.707107,0.707107,105.245,479.816)">
                    <path d="M516.613,41.109L556.118,1.634L563.18,85.931L523.685,125.448L516.613,41.109Z" style="fill:rgb(54,244,234);"/>
                </g>
                <g transform="matrix(-0.707107,-0.707107,-0.707107,0.707107,893.991,479.816)">
                    <path d="M516.613,41.109L556.076,1.626L563.033,85.649L523.422,125.056L516.613,41.109Z" style="fill:rgb(80,140,141);"/>
                </g>
            </g>
            <g id="vv2" serif:id="vv" transform="matrix(1,0,0,1,403.295,-0.0893568)">
                <g transform="matrix(0.707107,-0.707107,0.707107,0.707107,105.245,479.816)">
                    <path d="M516.613,41.109L432.142,33.971L439.345,118.377L523.586,125.222L516.613,41.109Z" style="fill:rgb(98,167,104);"/>
                </g>
                <g transform="matrix(0.707107,-0.707107,0.707107,0.707107,105.245,479.816)">
                    <path d="M516.613,41.109L556.118,1.634L563.031,85.79L523.586,125.223L516.613,41.109Z" style="fill:rgb(54,244,234);"/>
                </g>
                <g transform="matrix(-0.707107,-0.707107,-0.707107,0.707107,893.991,479.816)">
                    <path d="M516.613,41.109L556.076,1.626L563.304,86.063L523.685,125.642L516.613,41.109Z" style="fill:rgb(80,140,141);"/>
                </g>
            </g>
            <g id="_-2" serif:id=" " transform="matrix(1,0,0,1,273.881,-0.0893568)">
                <g transform="matrix(0.707107,-0.707107,0.707107,0.707107,105.245,479.816)">
                    <path d="M516.613,41.109L432.671,34.305L439.345,118.377L523.685,125.448L516.613,41.109Z" style="fill:rgb(98,167,104);"/>
                </g>
                <g transform="matrix(0.707107,-0.707107,0.707107,0.707107,105.245,479.816)">
                    <path d="M516.613,41.109L556.118,1.634L563.18,85.931L523.685,125.448L516.613,41.109Z" style="fill:rgb(54,244,234);"/>
                </g>
                <g transform="matrix(-0.707107,-0.707107,-0.707107,0.707107,893.991,479.816)">
                    <path d="M516.613,41.109L556.076,1.626L562.862,85.625L523.422,125.056L516.613,41.109Z" style="fill:rgb(80,140,141);"/>
                </g>
            </g>
            <g id="_-3" serif:id=" " transform="matrix(1,0,0,1,531.655,-0.0893568)">
                <g transform="matrix(0.707107,-0.707107,0.707107,0.707107,105.245,479.816)">
                    <path d="M516.613,41.109L432.671,34.305L439.345,118.377L523.685,125.448L516.613,41.109Z" style="fill:rgb(98,167,104);"/>
                </g>
                <g transform="matrix(0.707107,-0.707107,0.707107,0.707107,105.245,479.816)">
                    <path d="M516.613,41.109L556.118,1.634L563.18,85.931L523.685,125.448L516.613,41.109Z" style="fill:rgb(54,244,234);"/>
                </g>
                <g transform="matrix(-0.707107,-0.707107,-0.707107,0.707107,893.991,479.816)">
                    <path d="M516.613,41.109L556.076,1.626L562.931,85.498L523.422,125.056L516.613,41.109Z" style="fill:rgb(80,140,141);"/>
                </g>
            </g>
            <g id="vv3" serif:id="vv" transform="matrix(1,0,0,1,789.693,-0.0893568)">
                <g transform="matrix(0.707107,-0.707107,0.707107,0.707107,105.245,479.816)">
                    <path d="M516.613,41.109L432.274,34.037L439.345,118.377L523.586,125.222L516.613,41.109Z" style="fill:rgb(98,167,104);"/>
                </g>
                <g transform="matrix(0.707107,-0.707107,0.707107,0.707107,105.245,479.816)">
                    <path d="M516.613,41.109L556.118,1.634L563.031,85.79L523.586,125.223L516.613,41.109Z" style="fill:rgb(54,244,234);"/>
                </g>
                <g transform="matrix(-0.707107,-0.707107,-0.707107,0.707107,893.991,479.816)">
                    <path d="M516.613,41.109L556.076,1.626L563.304,86.063L523.685,125.448L516.613,41.109Z" style="fill:rgb(80,140,141);"/>
                </g>
            </g>
            <g id="_-4" serif:id=" " transform="matrix(1,0,0,1,660.28,-0.0893568)">
                <g transform="matrix(0.707107,-0.707107,0.707107,0.707107,105.245,479.816)">
                    <path d="M516.613,41.109L432.671,34.305L439.345,118.377L523.685,125.448L516.613,41.109Z" style="fill:rgb(98,167,104);"/>
                </g>
                <g transform="matrix(0.707107,-0.707107,0.707107,0.707107,105.245,479.816)">
                    <path d="M516.613,41.109L556.118,1.634L563.18,85.931L523.685,125.448L516.613,41.109Z" style="fill:rgb(54,244,234);"/>
                </g>
                <g transform="matrix(-0.707107,-0.707107,-0.707107,0.707107,893.991,479.816)">
                    <path d="M516.613,41.109L556.076,1.626L562.862,85.625L523.422,125.056L516.613,41.109Z" style="fill:rgb(80,140,141);"/>
                </g>
            </g>
            <g id="_-5" serif:id=" " transform="matrix(1,0,0,1,918.054,-0.0893568)">
                <g transform="matrix(0.707107,-0.707107,0.707107,0.707107,105.245,479.816)">
                    <path d="M516.613,41.109L432.671,34.305L439.345,118.377L523.685,125.448L516.613,41.109Z" style="fill:rgb(98,167,104);"/>
                </g>
                <g transform="matrix(0.707107,-0.707107,0.707107,0.707107,105.245,479.816)">
                    <path d="M516.613,41.109L556.118,1.634L563.18,85.931L523.685,125.448L516.613,41.109Z" style="fill:rgb(54,244,234);"/>
                </g>
                <g transform="matrix(-0.707107,-0.707107,-0.707107,0.707107,893.991,479.816)">
                    <path d="M516.613,41.109L556.076,1.626L562.862,85.625L523.422,125.056L516.613,41.109Z" style="fill:rgb(80,140,141);"/>
                </g>
            </g>
            <g transform="matrix(-0.707107,-0.707107,-0.707107,0.707107,2070.82,479.727)">
                <g id="vv4" serif:id="vv">
                    <path d="M516.613,41.109L556.076,1.626L563.304,86.063L523.685,125.448L516.613,41.109Z" style="fill:rgb(80,140,141);"/>
                </g>
            </g>
            <g id="_-6" serif:id=" " transform="matrix(1,0,0,1,1046.42,-0.0893568)">
                <g transform="matrix(0.707107,-0.707107,0.707107,0.707107,105.245,479.816)">
                    <path d="M516.613,41.109L432.671,34.305L439.345,118.377L523.685,125.448L516.613,41.109Z" style="fill:rgb(98,167,104);"/>
                </g>
                <g transform="matrix(0.707107,-0.707107,0.707107,0.707107,105.245,479.816)">
                    <path d="M516.613,41.109L556.118,1.634L563.18,85.931L523.685,125.448L516.613,41.109Z" style="fill:rgb(54,244,234);"/>
                </g>
                <g transform="matrix(-0.707107,-0.707107,-0.707107,0.707107,893.991,479.816)">
                    <path d="M516.613,41.109L556.076,1.626L562.862,85.625L523.422,125.056L516.613,41.109Z" style="fill:rgb(80,140,141);"/>
                </g>
            </g>
        </g>
        <g transform="matrix(1,0,0,1,-65.0239,-198.183)">
            <g transform="matrix(1,0,0,1,-499.667,0)">
                <g transform="matrix(0.707107,-0.707107,0.707107,0.707107,105.245,479.816)">
                    <path d="M516.613,41.109L432.274,34.037L439.345,118.377L523.532,125.04L516.613,41.109Z" style="fill:rgb(98,167,104);"/>
                </g>
                <g transform="matrix(0.707107,-0.707107,0.707107,0.707107,105.245,479.816)">
                    <path d="M516.613,41.109L556.118,1.634L562.967,85.594L523.513,125.059L516.613,41.109Z" style="fill:rgb(54,244,234);"/>
                </g>
            </g>
            <g transform="matrix(1,0,0,1,-370.371,-0.0185592)">
                <g transform="matrix(0.707107,-0.707107,0.707107,0.707107,105.245,479.816)">
                    <path d="M516.613,41.109L432.077,33.623L439.345,118.377L523.685,125.448L516.613,41.109Z" style="fill:rgb(98,167,104);"/>
                </g>
                <g transform="matrix(0.707107,-0.707107,0.707107,0.707107,105.245,479.816)">
                    <path d="M516.613,41.109L556.118,1.634L563.16,85.883L523.685,125.448L516.613,41.109Z" style="fill:rgb(54,244,234);"/>
                </g>
                <g transform="matrix(-0.707107,-0.707107,-0.707107,0.707107,893.991,479.816)">
                    <path d="M516.613,41.109L556.076,1.626L563.545,86.205L524.086,125.658L516.613,41.109Z" style="fill:rgb(80,140,141);"/>
                </g>
            </g>
            <g id="vv5" serif:id="vv" transform="matrix(1,0,0,1,-241.114,-0.0893568)">
                <g transform="matrix(0.707107,-0.707107,0.707107,0.707107,105.245,479.816)">
                    <path d="M516.613,41.109L432.274,34.037L439.697,118.611L524.042,125.677L516.613,41.109Z" style="fill:rgb(98,167,104);"/>
                </g>
                <g transform="matrix(0.707107,-0.707107,0.707107,0.707107,105.245,479.816)">
                    <path d="M516.613,41.109L556.118,1.634L563.031,85.79L523.586,125.223L516.613,41.109Z" style="fill:rgb(54,244,234);"/>
                </g>
                <g transform="matrix(-0.707107,-0.707107,-0.707107,0.707107,893.991,479.816)">
                    <path d="M516.613,41.109L556.076,1.626L563.219,85.998L523.685,125.448L516.613,41.109Z" style="fill:rgb(80,140,141);"/>
                </g>
            </g>
            <g id="vv6" serif:id="vv" transform="matrix(1,0,0,1,16.8737,-0.0893568)">
                <g transform="matrix(0.707107,-0.707107,0.707107,0.707107,105.245,479.816)">
                    <path d="M516.613,41.109L432.492,34.174L439.548,118.579L524.133,125.795L516.613,41.109Z" style="fill:rgb(98,167,104);"/>
                </g>
                <g transform="matrix(0.707107,-0.707107,0.707107,0.707107,105.245,479.816)">
                    <path d="M516.613,41.109L556.118,1.634L563.031,85.79L524.026,125.902L516.613,41.109Z" style="fill:rgb(54,244,234);"/>
                </g>
                <g transform="matrix(-0.707107,-0.707107,-0.707107,0.707107,893.991,479.816)">
                    <path d="M516.613,41.109L556.076,1.626L563.304,86.063L523.685,125.448L516.613,41.109Z" style="fill:rgb(80,140,141);"/>
                </g>
            </g>
            <g id="_-7" serif:id=" " transform="matrix(1,0,0,1,-112.54,-0.0893568)">
                <g transform="matrix(0.707107,-0.707107,0.707107,0.707107,105.245,479.816)">
                    <path d="M516.613,41.109L433.073,34.678L440.056,119.087L524.012,125.693L516.613,41.109Z" style="fill:rgb(98,167,104);"/>
                </g>
                <g transform="matrix(0.707107,-0.707107,0.707107,0.707107,105.245,479.816)">
                    <path d="M516.613,41.109L556.118,1.634L563.18,85.931L523.685,125.448L516.613,41.109Z" style="fill:rgb(54,244,234);"/>
                </g>
                <g transform="matrix(-0.707107,-0.707107,-0.707107,0.707107,893.991,479.816)">
                    <path d="M516.613,41.109L556.076,1.626L562.862,85.625L523.422,125.056L516.613,41.109Z" style="fill:rgb(80,140,141);"/>
                </g>
            </g>
            <g id="_-8" serif:id=" " transform="matrix(1,0,0,1,145.234,-0.0893568)">
                <g transform="matrix(0.707107,-0.707107,0.707107,0.707107,105.245,479.816)">
                    <path d="M516.613,41.109L433.311,35.051L439.877,118.909L523.996,125.734L516.613,41.109Z" style="fill:rgb(98,167,104);"/>
                </g>
                <g transform="matrix(0.707107,-0.707107,0.707107,0.707107,105.245,479.816)">
                    <path d="M516.613,41.109L556.118,1.634L563.18,85.931L523.987,125.739L516.613,41.109Z" style="fill:rgb(54,244,234);"/>
                </g>
                <g transform="matrix(-0.707107,-0.707107,-0.707107,0.707107,893.991,479.816)">
                    <path d="M516.613,41.109L556.076,1.626L562.862,85.625L522.689,124.483L516.613,41.109Z" style="fill:rgb(80,140,141);"/>
                </g>
            </g>
            <g id="vv7" serif:id="vv" transform="matrix(1,0,0,1,403.295,-0.0893568)">
                <g transform="matrix(0.707107,-0.707107,0.707107,0.707107,105.245,479.816)">
                    <path d="M516.613,41.109L432.274,34.037L440.586,119.618L523.586,125.222L516.613,41.109Z" style="fill:rgb(98,167,104);"/>
                </g>
                <g transform="matrix(0.707107,-0.707107,0.707107,0.707107,105.245,479.816)">
                    <path d="M516.613,41.109L556.118,1.634L563.031,85.79L523.586,125.223L516.613,41.109Z" style="fill:rgb(54,244,234);"/>
                </g>
                <g transform="matrix(-0.707107,-0.707107,-0.707107,0.707107,893.991,479.816)">
                    <path d="M516.613,41.109L556.076,1.626L563.304,86.063L523.685,125.448L516.613,41.109Z" style="fill:rgb(80,140,141);"/>
                </g>
            </g>
            <g id="_-9" serif:id=" " transform="matrix(1,0,0,1,273.881,-0.0893568)">
                <g transform="matrix(0.707107,-0.707107,0.707107,0.707107,105.245,479.816)">
                    <path d="M516.613,41.109L433.03,34.761L440.023,119.054L523.685,125.448L516.613,41.109Z" style="fill:rgb(98,167,104);"/>
                </g>
                <g transform="matrix(0.707107,-0.707107,0.707107,0.707107,105.245,479.816)">
                    <path d="M516.613,41.109L556.118,1.634L563.18,85.931L523.685,125.448L516.613,41.109Z" style="fill:rgb(54,244,234);"/>
                </g>
                <g transform="matrix(-0.707107,-0.707107,-0.707107,0.707107,893.991,479.816)">
                    <path d="M516.613,41.109L556.076,1.626L562.862,85.625L522.955,124.711L516.613,41.109Z" style="fill:rgb(80,140,141);"/>
                </g>
            </g>
            <g id="_-10" serif:id=" " transform="matrix(1,0,0,1,531.655,-0.0893568)">
                <g transform="matrix(0.707107,-0.707107,0.707107,0.707107,105.245,479.816)">
                    <path d="M516.613,41.109L432.671,34.305L439.345,118.377L523.685,125.448L516.613,41.109Z" style="fill:rgb(98,167,104);"/>
                </g>
                <g transform="matrix(0.707107,-0.707107,0.707107,0.707107,105.245,479.816)">
                    <path d="M516.613,41.109L556.118,1.634L563.18,85.931L523.685,125.448L516.613,41.109Z" style="fill:rgb(54,244,234);"/>
                </g>
                <g transform="matrix(-0.707107,-0.707107,-0.707107,0.707107,893.991,479.816)">
                    <path d="M516.613,41.109L556.076,1.626L562.862,85.625L523.422,125.056L516.613,41.109Z" style="fill:rgb(80,140,141);"/>
                </g>
            </g>
            <g id="vv8" serif:id="vv" transform="matrix(1,0,0,1,790.409,-0.0893568)">
                <g transform="matrix(0.707107,-0.707107,0.707107,0.707107,105.245,479.816)">
                    <path d="M516.613,41.109L432.274,34.037L439.345,118.377L523.494,125.237L516.613,41.109Z" style="fill:rgb(98,167,104);"/>
                </g>
                <g transform="matrix(0.707107,-0.707107,0.707107,0.707107,105.245,479.816)">
                    <path d="M516.613,41.109L556.118,1.634L563.031,85.79L523.476,125.261L516.613,41.109Z" style="fill:rgb(54,244,234);"/>
                </g>
                <g transform="matrix(-0.707107,-0.707107,-0.707107,0.707107,893.991,479.816)">
                    <path d="M516.613,41.109L556.076,1.626L563.304,86.063L523.685,125.448L516.613,41.109Z" style="fill:rgb(80,140,141);"/>
                </g>
            </g>
            <g id="_-11" serif:id=" " transform="matrix(1,0,0,1,660.996,-0.0893568)">
                <g transform="matrix(0.707107,-0.707107,0.707107,0.707107,105.245,479.816)">
                    <path d="M516.613,41.109L432.671,34.305L439.345,118.377L523.685,125.448L516.613,41.109Z" style="fill:rgb(98,167,104);"/>
                </g>
                <g transform="matrix(0.707107,-0.707107,0.707107,0.707107,105.245,479.816)">
                    <path d="M516.613,41.109L556.118,1.634L563.18,85.931L523.685,125.448L516.613,41.109Z" style="fill:rgb(54,244,234);"/>
                </g>
                <g transform="matrix(-0.707107,-0.707107,-0.707107,0.707107,893.991,479.816)">
                    <path d="M516.613,41.109L556.076,1.626L562.862,85.625L523.422,125.056L516.613,41.109Z" style="fill:rgb(80,140,141);"/>
                </g>
            </g>
            <g id="_-12" serif:id=" " transform="matrix(1,0,0,1,660.28,-0.0893568)">
                <g transform="matrix(0.707107,-0.707107,0.707107,0.707107,105.245,479.816)">
                    <path d="M516.613,41.109L432.671,34.305L439.535,118.945L523.685,125.448L516.613,41.109Z" style="fill:rgb(98,167,104);"/>
                </g>
                <g transform="matrix(0.707107,-0.707107,0.707107,0.707107,105.245,479.816)">
                    <path d="M516.613,41.109L556.118,1.634L563.18,85.931L523.685,125.448L516.613,41.109Z" style="fill:rgb(54,244,234);"/>
                </g>
                <g transform="matrix(-0.707107,-0.707107,-0.707107,0.707107,893.991,479.816)">
                    <path d="M516.613,41.109L556.076,1.626L562.862,85.625L523.422,125.056L516.613,41.109Z" style="fill:rgb(80,140,141);"/>
                </g>
            </g>
            <g id="_-13" serif:id=" " transform="matrix(1,0,0,1,918.77,-0.0893568)">
                <g transform="matrix(0.707107,-0.707107,0.707107,0.707107,105.245,479.816)">
                    <path d="M516.613,41.109L432.734,34.457L439.345,118.377L523.578,125.294L516.613,41.109Z" style="fill:rgb(98,167,104);"/>
                </g>
                <g transform="matrix(0.707107,-0.707107,0.707107,0.707107,105.245,479.816)">
                    <path d="M516.613,41.109L556.118,1.634L563.18,85.931L523.531,125.412L516.613,41.109Z" style="fill:rgb(54,244,234);"/>
                </g>
                <g transform="matrix(-0.707107,-0.707107,-0.707107,0.707107,893.991,479.816)">
                    <path d="M516.613,41.109L556.076,1.626L562.862,85.625L523.252,125.023L516.613,41.109Z" style="fill:rgb(80,140,141);"/>
                </g>
            </g>
            <g id="vv9" serif:id="vv" transform="matrix(1,0,0,1,1176.83,-0.0893568)">
                <g transform="matrix(0.707107,-0.707107,0.707107,0.707107,105.245,479.816)">
                    <path d="M516.613,41.109L431.725,33.507L439.345,118.377L523.586,125.222L516.613,41.109Z" style="fill:rgb(98,167,104);"/>
                </g>
                <g transform="matrix(0.707107,-0.707107,0.707107,0.707107,105.245,479.816)">
                    <path d="M516.613,41.109L556.118,1.634L563.031,85.79L523.586,125.223L516.613,41.109Z" style="fill:rgb(54,244,234);"/>
                </g>
                <g transform="matrix(-0.707107,-0.707107,-0.707107,0.707107,893.991,479.816)">
                    <path d="M516.613,41.109L556.076,1.626L563.304,86.063L524.206,126.007L516.613,41.109Z" style="fill:rgb(80,140,141);"/>
                </g>
            </g>
            <g id="_-14" serif:id=" " transform="matrix(1,0,0,1,1047.42,-0.0893568)">
                <g transform="matrix(0.707107,-0.707107,0.707107,0.707107,105.245,479.816)">
                    <path d="M516.613,41.109L432.553,34.281L439.345,118.377L523.258,124.983L516.613,41.109Z" style="fill:rgb(98,167,104);"/>
                </g>
                <g transform="matrix(0.707107,-0.707107,0.707107,0.707107,105.245,479.816)">
                    <path d="M516.613,41.109L556.118,1.634L563.18,85.931L523.239,125.059L516.613,41.109Z" style="fill:rgb(54,244,234);"/>
                </g>
                <g transform="matrix(-0.707107,-0.707107,-0.707107,0.707107,893.991,479.816)">
                    <path d="M516.613,41.109L556.076,1.626L562.862,85.625L523.375,125.198L516.613,41.109Z" style="fill:rgb(80,140,141);"/>
                </g>
            </g>
        </g>
        <g transform="matrix(1,0,0,1,63.8872,198.746)">
            <g transform="matrix(1,0,0,1,-499.667,0)">
                <g transform="matrix(0.707107,-0.707107,0.707107,0.707107,105.245,479.816)">
                    <path d="M516.613,41.109L432.274,34.037L439.345,118.377L523.532,125.04L516.613,41.109Z" style="fill:rgb(98,167,104);"/>
                </g>
                <g transform="matrix(0.707107,-0.707107,0.707107,0.707107,105.245,479.816)">
                    <path d="M516.613,41.109L556.118,1.634L562.967,85.594L523.513,125.059L516.613,41.109Z" style="fill:rgb(54,244,234);"/>
                </g>
                <g transform="matrix(-0.707107,-0.707107,-0.707107,0.707107,894.344,479.816)">
                    <path d="M516.613,41.109L556.118,1.634L565.831,83.55L523.685,125.448L516.613,41.109Z" style="fill:rgb(80,140,141);"/>
                </g>
            </g>
            <g transform="matrix(1,0,0,1,-370.371,-0.0185592)">
                <g transform="matrix(0.707107,-0.707107,0.707107,0.707107,105.245,479.816)">
                    <path d="M516.613,41.109L432.077,33.623L439.345,118.377L523.685,125.448L516.613,41.109Z" style="fill:rgb(98,167,104);"/>
                </g>
                <g transform="matrix(0.707107,-0.707107,0.707107,0.707107,105.245,479.816)">
                    <path d="M516.613,41.109L556.118,1.634L563.16,85.883L523.685,125.448L516.613,41.109Z" style="fill:rgb(54,244,234);"/>
                </g>
                <g transform="matrix(-0.707107,-0.707107,-0.707107,0.707107,893.991,479.816)">
                    <path d="M516.613,41.109L556.076,1.626L563.545,86.205L524.086,125.658L516.613,41.109Z" style="fill:rgb(80,140,141);"/>
                </g>
            </g>
            <g id="vv10" serif:id="vv" transform="matrix(1,0,0,1,-241.114,-0.0893568)">
                <g transform="matrix(0.707107,-0.707107,0.707107,0.707107,105.245,479.816)">
                    <path d="M516.613,41.109L432.274,34.037L439.345,118.377L523.586,125.222L516.613,41.109Z" style="fill:rgb(98,167,104);"/>
                </g>
                <g transform="matrix(0.707107,-0.707107,0.707107,0.707107,105.245,479.816)">
                    <path d="M516.613,41.109L556.118,1.634L563.031,85.79L523.586,125.223L516.613,41.109Z" style="fill:rgb(54,244,234);"/>
                </g>
                <g transform="matrix(-0.707107,-0.707107,-0.707107,0.707107,893.991,479.816)">
                    <path d="M516.613,41.109L556.076,1.626L563.219,85.998L523.685,125.448L516.613,41.109Z" style="fill:rgb(80,140,141);"/>
                </g>
            </g>
            <g id="vv11" serif:id="vv" transform="matrix(1,0,0,1,16.8737,-0.0893568)">
                <g transform="matrix(0.707107,-0.707107,0.707107,0.707107,105.245,479.816)">
                    <path d="M516.613,41.109L432.274,34.037L439.345,118.377L523.586,125.222L516.613,41.109Z" style="fill:rgb(98,167,104);"/>
                </g>
                <g transform="matrix(0.707107,-0.707107,0.707107,0.707107,105.245,479.816)">
                    <path d="M516.613,41.109L556.118,1.634L563.031,85.79L523.586,125.223L516.613,41.109Z" style="fill:rgb(54,244,234);"/>
                </g>
                <g transform="matrix(-0.707107,-0.707107,-0.707107,0.707107,893.991,479.816)">
                    <path d="M516.613,41.109L556.076,1.626L563.304,86.063L523.685,125.448L516.613,41.109Z" style="fill:rgb(80,140,141);"/>
                </g>
            </g>
            <g id="_-15" serif:id=" " transform="matrix(1,0,0,1,-112.54,-0.0893568)">
                <g transform="matrix(0.707107,-0.707107,0.707107,0.707107,105.245,479.816)">
                    <path d="M516.613,41.109L432.671,34.305L439.345,118.377L523.685,125.448L516.613,41.109Z" style="fill:rgb(98,167,104);"/>
                </g>
                <g transform="matrix(0.707107,-0.707107,0.707107,0.707107,105.245,479.816)">
                    <path d="M516.613,41.109L556.118,1.634L563.18,85.931L523.685,125.448L516.613,41.109Z" style="fill:rgb(54,244,234);"/>
                </g>
                <g transform="matrix(-0.707107,-0.707107,-0.707107,0.707107,893.991,479.816)">
                    <path d="M516.613,41.109L556.076,1.626L562.862,85.625L523.422,125.056L516.613,41.109Z" style="fill:rgb(80,140,141);"/>
                </g>
            </g>
            <g id="_-16" serif:id=" " transform="matrix(1,0,0,1,145.234,-0.0893568)">
                <g transform="matrix(0.707107,-0.707107,0.707107,0.707107,105.245,479.816)">
                    <path d="M516.613,41.109L432.671,34.305L439.345,118.377L523.685,125.448L516.613,41.109Z" style="fill:rgb(98,167,104);"/>
                </g>
                <g transform="matrix(0.707107,-0.707107,0.707107,0.707107,105.245,479.816)">
                    <path d="M516.613,41.109L556.118,1.634L563.18,85.931L523.685,125.448L516.613,41.109Z" style="fill:rgb(54,244,234);"/>
                </g>
                <g transform="matrix(-0.707107,-0.707107,-0.707107,0.707107,893.991,479.816)">
                    <path d="M516.613,41.109L556.076,1.626L562.862,85.625L523.422,125.056L516.613,41.109Z" style="fill:rgb(80,140,141);"/>
                </g>
            </g>
            <g id="vv12" serif:id="vv" transform="matrix(1,0,0,1,403.295,-0.0893568)">
                <g transform="matrix(0.707107,-0.707107,0.707107,0.707107,105.245,479.816)">
                    <path d="M516.613,41.109L432.274,34.037L439.345,118.377L523.586,125.222L516.613,41.109Z" style="fill:rgb(98,167,104);"/>
                </g>
                <g transform="matrix(0.707107,-0.707107,0.707107,0.707107,105.245,479.816)">
                    <path d="M516.613,41.109L556.118,1.634L563.031,85.79L523.586,125.223L516.613,41.109Z" style="fill:rgb(54,244,234);"/>
                </g>
                <g transform="matrix(-0.707107,-0.707107,-0.707107,0.707107,893.991,479.816)">
                    <path d="M516.613,41.109L556.076,1.626L563.304,86.063L523.685,125.448L516.613,41.109Z" style="fill:rgb(80,140,141);"/>
                </g>
            </g>
            <g id="_-17" serif:id=" " transform="matrix(1,0,0,1,273.881,-0.0893568)">
                <g transform="matrix(0.707107,-0.707107,0.707107,0.707107,105.245,479.816)">
                    <path d="M516.613,41.109L432.671,34.305L439.345,118.377L523.685,125.448L516.613,41.109Z" style="fill:rgb(98,167,104);"/>
                </g>
                <g transform="matrix(0.707107,-0.707107,0.707107,0.707107,105.245,479.816)">
                    <path d="M516.613,41.109L556.118,1.634L563.18,85.931L523.685,125.448L516.613,41.109Z" style="fill:rgb(54,244,234);"/>
                </g>
                <g transform="matrix(-0.707107,-0.707107,-0.707107,0.707107,893.991,479.816)">
                    <path d="M516.613,41.109L556.076,1.626L562.862,85.625L523.422,125.056L516.613,41.109Z" style="fill:rgb(80,140,141);"/>
                </g>
            </g>
            <g id="_-18" serif:id=" " transform="matrix(1,0,0,1,531.655,-0.0893568)">
                <g transform="matrix(0.707107,-0.707107,0.707107,0.707107,105.245,479.816)">
                    <path d="M516.613,41.109L432.671,34.305L439.345,118.377L523.685,125.448L516.613,41.109Z" style="fill:rgb(98,167,104);"/>
                </g>
                <g transform="matrix(0.707107,-0.707107,0.707107,0.707107,105.245,479.816)">
                    <path d="M516.613,41.109L556.118,1.634L563.18,85.931L523.685,125.448L516.613,41.109Z" style="fill:rgb(54,244,234);"/>
                </g>
                <g transform="matrix(-0.707107,-0.707107,-0.707107,0.707107,893.991,479.816)">
                    <path d="M516.613,41.109L556.076,1.626L562.862,85.625L523.422,125.056L516.613,41.109Z" style="fill:rgb(80,140,141);"/>
                </g>
            </g>
            <g id="vv13" serif:id="vv" transform="matrix(1,0,0,1,789.693,-0.0893568)">
                <g transform="matrix(0.707107,-0.707107,0.707107,0.707107,105.245,479.816)">
                    <path d="M516.613,41.109L432.274,34.037L439.345,118.377L523.586,125.222L516.613,41.109Z" style="fill:rgb(98,167,104);"/>
                </g>
                <g transform="matrix(0.707107,-0.707107,0.707107,0.707107,105.245,479.816)">
                    <path d="M516.613,41.109L556.118,1.634L563.031,85.79L523.586,125.223L516.613,41.109Z" style="fill:rgb(54,244,234);"/>
                </g>
                <g transform="matrix(-0.707107,-0.707107,-0.707107,0.707107,893.991,479.816)">
                    <path d="M516.613,41.109L556.076,1.626L563.304,86.063L523.685,125.448L516.613,41.109Z" style="fill:rgb(80,140,141);"/>
                </g>
            </g>
            <g id="_-19" serif:id=" " transform="matrix(1,0,0,1,660.28,-0.0893568)">
                <g transform="matrix(0.707107,-0.707107,0.707107,0.707107,105.245,479.816)">
                    <path d="M516.613,41.109L432.671,34.305L439.345,118.377L523.685,125.448L516.613,41.109Z" style="fill:rgb(98,167,104);"/>
                </g>
                <g transform="matrix(0.707107,-0.707107,0.707107,0.707107,105.245,479.816)">
                    <path d="M516.613,41.109L556.118,1.634L563.18,85.931L523.685,125.448L516.613,41.109Z" style="fill:rgb(54,244,234);"/>
                </g>
                <g transform="matrix(-0.707107,-0.707107,-0.707107,0.707107,893.991,479.816)">
                    <path d="M516.613,41.109L556.076,1.626L562.862,85.625L523.422,125.056L516.613,41.109Z" style="fill:rgb(80,140,141);"/>
                </g>
            </g>
            <g id="_-20" serif:id=" " transform="matrix(1,0,0,1,918.054,-0.0893568)">
                <g transform="matrix(0.707107,-0.707107,0.707107,0.707107,105.245,479.816)">
                    <path d="M516.613,41.109L432.671,34.305L439.345,118.377L523.685,125.448L516.613,41.109Z" style="fill:rgb(98,167,104);"/>
                </g>
                <g transform="matrix(0.707107,-0.707107,0.707107,0.707107,105.245,479.816)">
                    <path d="M516.613,41.109L556.118,1.634L563.18,85.931L523.685,125.448L516.613,41.109Z" style="fill:rgb(54,244,234);"/>
                </g>
                <g transform="matrix(-0.707107,-0.707107,-0.707107,0.707107,893.991,479.816)">
                    <path d="M516.613,41.109L556.076,1.626L562.862,85.625L523.422,125.056L516.613,41.109Z" style="fill:rgb(80,140,141);"/>
                </g>
            </g>
            <g id="vv14" serif:id="vv">
            </g>
            <g id="_-21" serif:id=" " transform="matrix(1,0,0,1,1047.42,-0.0893568)">
                <g transform="matrix(0.707107,-0.707107,0.707107,0.707107,105.245,479.816)">
                    <path d="M516.613,41.109L432.671,34.305L439.345,118.377L523.685,125.448L516.613,41.109Z" style="fill:rgb(98,167,104);"/>
                </g>
                <g transform="matrix(0.707107,-0.707107,0.707107,0.707107,105.245,479.816)">
                    <path d="M516.613,41.109L556.118,1.634L563.18,85.931L523.685,125.448L516.613,41.109Z" style="fill:rgb(54,244,234);"/>
                </g>
                <g transform="matrix(-0.707107,-0.707107,-0.707107,0.707107,893.991,479.816)">
                    <path d="M516.613,41.109L556.076,1.626L563.664,86.056L523.299,125.919L516.613,41.109Z" style="fill:rgb(80,140,141);"/>
                </g>
            </g>
        </g>
        <rect x="-18.856" y="-33.135" width="1629.58" height="462.247" style="fill:rgb(22,27,34);fill-opacity:0.55;"/>
    </g>
</svg>
